<svg xmlns="http://www.w3.org/2000/svg" width="101" height="71" viewBox="0 0 101 71">
    <g fill="#FFF" fill-rule="nonzero">
        <path d="M99.027 7.889a5.924 5.924 0 0 1-5.918-5.917C93.11.883 92.226 0 91.137 0H9.863c-1.09 0-1.972.883-1.972 1.972A5.924 5.924 0 0 1 1.973 7.89C.883 7.889 0 8.772 0 9.86V61.14c0 1.09.883 1.972 1.973 1.972a5.924 5.924 0 0 1 5.918 5.917c0 1.089.883 1.972 1.972 1.972h81.274c1.09 0 1.972-.883 1.972-1.972a5.924 5.924 0 0 1 5.918-5.917c1.09 0 1.973-.883 1.973-1.972V9.86c0-1.09-.883-1.972-1.973-1.972zm-1.972 51.476a9.894 9.894 0 0 0-7.693 7.69H71.016V61.14a1.972 1.972 0 0 0-3.946 0v5.917H11.638a9.894 9.894 0 0 0-7.693-7.691v-47.73a9.894 9.894 0 0 0 7.693-7.69H67.07V9.86a1.972 1.972 0 0 0 3.946 0V3.944h18.346a9.894 9.894 0 0 0 7.693 7.691v47.73z"/>
        <path d="M62.67 34.89c-2.802-4.28-7.678-6.795-12.74-6.56l-5.184.275-9.541-15.66a1.957 1.957 0 0 0-1.67-.945h-3.928c-.59 0-1.15.27-1.522.736a2.027 2.027 0 0 0-.402 1.667l3.019 14.949c-7.919.43-7.532.377-8.237.468l-5.022-7c-.37-.515-.959-.82-1.586-.82H9.964c-.65 0-1.259.328-1.624.876a2.03 2.03 0 0 0-.202 1.86c1.43 3.673 3.65 9.421 4.329 11.264-.678 1.843-2.9 7.591-4.329 11.263a2.031 2.031 0 0 0 .201 1.861c.366.548.975.876 1.625.876h5.893c.627 0 1.216-.305 1.586-.82l5.022-7c.698.09.3.036 8.237.468l-3.019 14.95c-.119.588.029 1.2.402 1.666.373.466.932.736 1.522.736h3.929c.68 0 1.31-.358 1.669-.946l9.541-15.66 5.196.276c5.051.233 9.926-2.28 12.728-6.561a2.03 2.03 0 0 0 0-2.218zm-12.536 4.785l-6.343-.336a1.952 1.952 0 0 0-1.771.943L32.443 56h-.426l2.993-14.825a2.028 2.028 0 0 0-.37-1.626 1.954 1.954 0 0 0-1.452-.774c-10.595-.619-9.363-.395-11.153-.712l-.112-.02a1.947 1.947 0 0 0-1.922.791L14.86 46h-2.006c3.657-9.416 3.657-9.541 3.657-10 0-.459 0-.584-3.657-10h2.006L20 33.166c.442.614 1.187.921 1.923.79l.112-.02c1.79-.316.58-.093 11.153-.71a1.954 1.954 0 0 0 1.452-.775c.35-.461.485-1.055.37-1.626L32.016 16h.427l9.577 15.718c.377.62 1.055.981 1.771.943l6.33-.335c3.223-.15 6.346 1.235 8.445 3.674-2.1 2.44-5.224 3.823-8.432 3.675zM69 16a2 2 0 0 0-2 2v4a2 2 0 1 0 4 0v-4a2 2 0 0 0-2-2zM69 31a2 2 0 0 0-2 2v4a2 2 0 1 0 4 0v-4a2 2 0 0 0-2-2zM69 48a2 2 0 0 0-2 2v4a2 2 0 1 0 4 0v-4a2 2 0 0 0-2-2zM91.043 16H76.957C75.876 16 75 16.895 75 18s.876 2 1.957 2h14.086C92.124 20 93 19.105 93 18s-.876-2-1.957-2zM91.043 28H76.957C75.876 28 75 28.895 75 30s.876 2 1.957 2h14.086C92.124 32 93 31.105 93 30s-.876-2-1.957-2zM91.043 40H76.957C75.876 40 75 40.895 75 42s.876 2 1.957 2h14.086C92.124 44 93 43.105 93 42s-.876-2-1.957-2zM91.043 51H76.957C75.876 51 75 51.895 75 53s.876 2 1.957 2h14.086C92.124 55 93 54.105 93 53s-.876-2-1.957-2z"/>
    </g>
</svg>
